<svg xmlns="http://www.w3.org/2000/svg" viewBox="0 0 105.77 53.5"><defs><style>.cls-1{fill:#d8b038;}.cls-2{fill:#fff;}.cls-3{fill:#5a5448;}.cls-4{fill:#474238;}.cls-5{fill:none;stroke:#968f82;stroke-linecap:round;stroke-miterlimit:10;opacity:0.7;}</style></defs><title>logo1</title><g id="Слой_2" data-name="Слой 2"><g id="Слой_1-2" data-name="Слой 1"><path class="cls-1" d="M93,44.4l12.37-7.61a.79.79,0,0,0-.42-1.47H.79a.8.8,0,0,0-.79.8V52.7a.8.8,0,0,0,.79.8H105a.79.79,0,0,0,.42-1.47L93,44.41Z"/><path class="cls-2" d="M19,42.17h1.2v6.08H19Zm3.63,2.39a1.42,1.42,0,0,0-.31-1,1.13,1.13,0,0,0-.9-.35,1.26,1.26,0,0,0-.91.31,1.16,1.16,0,0,0-.31.87L20,43.23a2.13,2.13,0,0,1,.74-.85,1.78,1.78,0,0,1,1-.3,2,2,0,0,1,1.09.29,1.84,1.84,0,0,1,.69.85,3.38,3.38,0,0,1,.24,1.34v3.69H22.6Zm3.64,0a1.38,1.38,0,0,0-.34-1,1.2,1.2,0,0,0-.94-.35,1.09,1.09,0,0,0-.86.34,1.38,1.38,0,0,0-.3,1l-.24-1.17a2.25,2.25,0,0,1,.76-.94,1.76,1.76,0,0,1,1-.33,2.12,2.12,0,0,1,1.12.29,1.82,1.82,0,0,1,.71.85,3.38,3.38,0,0,1,.24,1.34v3.69H26.24Z"/><path class="cls-2" d="M30.89,48.34,30.3,48a2.12,2.12,0,0,1-.92-.93,3.34,3.34,0,0,1-.31-1.48v-.68a3.58,3.58,0,0,1,.3-1.54,2.21,2.21,0,0,1,.88-1,2.71,2.71,0,0,1,1.38-.33,2.22,2.22,0,0,1,1.3.38,2.36,2.36,0,0,1,.83,1.1A4.72,4.72,0,0,1,34,45.29v.4h-4.1v-1h3a2,2,0,0,0-.38-1.16,1.1,1.1,0,0,0-.89-.41,1.32,1.32,0,0,0-1.05.44,1.91,1.91,0,0,0-.37,1.26v.78a1.57,1.57,0,0,0,.4,1.16,1.5,1.5,0,0,0,1.13.4,1.86,1.86,0,0,0,.72-.15,1.89,1.89,0,0,0,.64-.41l.78.79a3.36,3.36,0,0,1-1,.67,2.87,2.87,0,0,1-1.13.24Z"/><path class="cls-2" d="M37.33,48.34l-.6-.32a2.1,2.1,0,0,1-.91-.93,3.2,3.2,0,0,1-.32-1.48v-.68a3.58,3.58,0,0,1,.31-1.54,2.19,2.19,0,0,1,.87-1,2.78,2.78,0,0,1,1.39-.33,2.24,2.24,0,0,1,1.3.38,2.34,2.34,0,0,1,.82,1.1,4.72,4.72,0,0,1,.28,1.73v.4h-4.1v-1h3A2.1,2.1,0,0,0,39,43.57a1.08,1.08,0,0,0-.88-.41A1.32,1.32,0,0,0,37,43.6a2,2,0,0,0-.37,1.26v.78A1.57,1.57,0,0,0,37,46.8a1.51,1.51,0,0,0,1.13.4,1.86,1.86,0,0,0,.72-.15,1.89,1.89,0,0,0,.64-.41l.79.79a3.4,3.4,0,0,1-1,.67,2.83,2.83,0,0,1-1.13.24Z"/><path class="cls-2" d="M41.65,42.17h2.74v1.08H41.65Zm1,5.7a1.81,1.81,0,0,1-.35-1.2V40.4h1.2v6.28a.55.55,0,0,0,.09.34.28.28,0,0,0,.25.12h.58v1.14H43.7A1.32,1.32,0,0,1,42.62,47.87Z"/><path class="cls-2" d="M49.46,44.87a1.32,1.32,0,0,0-.4,1,1.28,1.28,0,0,0,.43,1,1.79,1.79,0,0,0,1.2.36,2.05,2.05,0,0,0,1.25-.4,2.38,2.38,0,0,0,.8-1.14,5.29,5.29,0,0,0,.27-1.8h1.14a5.85,5.85,0,0,1-.44,2.38,3.27,3.27,0,0,1-1.27,1.51,3.73,3.73,0,0,1-2,.52,3,3,0,0,1-1.36-.29,2,2,0,0,1-.86-.83,2.75,2.75,0,0,1-.3-1.33,2.36,2.36,0,0,1,.58-1.67,2.4,2.4,0,0,1,1.62-.72l.49,1A1.63,1.63,0,0,0,49.46,44.87Zm.56,0a5.19,5.19,0,0,1-.69-.89,4.14,4.14,0,0,1-.44-1,3.43,3.43,0,0,1-.15-1,2.37,2.37,0,0,1,.59-1.73A2.25,2.25,0,0,1,51,39.66a2.31,2.31,0,0,1,1.68.59,2.23,2.23,0,0,1,.59,1.67V42H52.1v-.11a1.14,1.14,0,0,0-.28-.81,1.08,1.08,0,0,0-.8-.28,1.06,1.06,0,0,0-.81.3,1.3,1.3,0,0,0-.28.87,2.61,2.61,0,0,0,.11.71,3.84,3.84,0,0,0,.33.72,4.09,4.09,0,0,0,.52.68l3.9,4.14H53.27Z"/><path class="cls-2" d="M59.6,48.34,59,48a2.1,2.1,0,0,1-.91-.93,3.2,3.2,0,0,1-.31-1.48v-.68a3.58,3.58,0,0,1,.3-1.54,2.19,2.19,0,0,1,.87-1,2.78,2.78,0,0,1,1.39-.33,2.24,2.24,0,0,1,1.3.38,2.34,2.34,0,0,1,.82,1.1,4.71,4.71,0,0,1,.29,1.73v.4H58.64v-1h3a2,2,0,0,0-.39-1.16,1.08,1.08,0,0,0-.88-.41,1.29,1.29,0,0,0-1.05.44,1.91,1.91,0,0,0-.38,1.26v.78a1.62,1.62,0,0,0,.4,1.16,1.51,1.51,0,0,0,1.13.4,1.86,1.86,0,0,0,.72-.15,1.89,1.89,0,0,0,.64-.41l.79.79a3.28,3.28,0,0,1-1,.67,2.83,2.83,0,0,1-1.13.24Z"/><path class="cls-2" d="M64.65,47.87a2.06,2.06,0,0,1-.05-2.77,2.28,2.28,0,0,1,1.54-.45h1.73l.08,1h-1.8a1,1,0,0,0-.7.21.83.83,0,0,0-.23.64.77.77,0,0,0,.31.68,1.55,1.55,0,0,0,.93.23,2.6,2.6,0,0,0,1-.15.48.48,0,0,0,.34-.46l.12.86a1.24,1.24,0,0,1-.39.4,1.51,1.51,0,0,1-.53.24,2.91,2.91,0,0,1-.69.08A2.57,2.57,0,0,1,64.65,47.87Zm3.17-3.48a1.29,1.29,0,0,0-.32-.92,1.2,1.2,0,0,0-.91-.34,2.21,2.21,0,0,0-.71.12,1.9,1.9,0,0,0-.62.31l-.87-.6a2.36,2.36,0,0,1,.91-.65,3.4,3.4,0,0,1,1.26-.23,2.83,2.83,0,0,1,1.29.27,1.75,1.75,0,0,1,.82.77A2.47,2.47,0,0,1,69,44.34v3.91H67.82Z"/><path class="cls-2" d="M70.3,42.17h2.75v1.08H70.3Zm1,5.7a1.87,1.87,0,0,1-.34-1.2V40.4h1.2v6.28a.63.63,0,0,0,.08.34.31.31,0,0,0,.26.12h.58v1.14h-.7A1.34,1.34,0,0,1,71.27,47.87Z"/><path class="cls-3" d="M82.89,34.5a1.5,1.5,0,0,1-1.5,1.5h-71a1.5,1.5,0,0,1,0-3h71A1.5,1.5,0,0,1,82.89,34.5Z"/><path class="cls-3" d="M79.75,33H12A34,34,0,0,1,41.77,2.26c.7-.09,1.41-.16,2.13-.2,0,0,0,0,0-.06a2,2,0,0,1,4,0v.06A34,34,0,0,1,79.75,33Z"/><path class="cls-4" d="M41.77,2.26A35.5,35.5,0,0,0,21.94,21.5,35,35,0,0,0,19.26,33c-.06.92-.07,1.76-.07,2.5l-.59.5H10.39a1.5,1.5,0,0,1,0-3H12A34,34,0,0,1,41.77,2.26Z"/><path class="cls-5" d="M71.88,19.75A33.39,33.39,0,0,1,73.44,23"/><path class="cls-5" d="M63.44,10A31.22,31.22,0,0,1,71,18.19"/></g></g></svg>